<svg width="45" height="45" viewBox="0 0 45 45" fill="none" xmlns="http://www.w3.org/2000/svg">
<circle cx="22.5" cy="22.5" r="22.5" fill="black"/>
<g clip-path="url(#clip0)">
<path d="M16.95 33.3C15.4925 33.3 14.3 34.47 14.3 35.9C14.3 37.33 15.4925 38.5 16.95 38.5C18.4075 38.5 19.6 37.33 19.6 35.9C19.6 34.47 18.4075 33.3 16.95 33.3ZM9 12.5V15.1H11.65L16.42 24.98L14.565 28.1C14.4325 28.49 14.3 29.01 14.3 29.4C14.3 30.83 15.4925 32 16.95 32H32.85V29.4H17.48C17.3475 29.4 17.215 29.27 17.215 29.14V29.0099L18.4075 26.7999H28.2125C29.2725 26.7999 30.0675 26.2799 30.465 25.4999L35.235 17.05C35.5 16.79 35.5 16.66 35.5 16.4C35.5 15.62 34.97 15.1 34.175 15.1H14.565L13.3725 12.5H9ZM30.2 33.3C28.7425 33.3 27.55 34.47 27.55 35.9C27.55 37.33 28.7425 38.5 30.2 38.5C31.6575 38.5 32.85 37.33 32.85 35.9C32.85 34.47 31.6575 33.3 30.2 33.3Z" fill="white"/>
</g>
<defs>
<clipPath id="clip0">
<rect width="26.5" height="26" fill="white" transform="translate(9 12.5)"/>
</clipPath>
</defs>
</svg>
