<svg width="446" height="110" viewBox="0 0 446 110" fill="none" xmlns="http://www.w3.org/2000/svg">
<g filter="url(#filter0_d)">
<rect x="9" y="6" width="100" height="100" rx="50" fill="black"/>
<g clip-path="url(#clip0)">
<g clip-path="url(#clip1)">
<path d="M91.8126 46.2703C89.8317 41.0797 84.5047 38.8139 79.9492 41.1634C77.0519 42.6577 76.7617 42.3815 72.3931 41.8778C72.4514 40.6711 71.0443 40.2343 70.5226 41.288L70.3473 41.6419L66.5923 41.2089C66.7313 39.9698 65.271 39.4392 64.7276 40.5368L64.5134 40.9692L60.7853 40.5393C61.0115 39.2617 59.4932 38.6537 58.9327 39.7856L58.6796 40.2964L50.7174 39.3783C48.8987 39.1685 47.193 40.6097 46.8601 42.7152L46.7498 43.4124C46.4972 45.0057 47.1006 46.5847 48.2867 47.4353L48.9745 47.9286L46.6769 51.098C45.2395 53.0809 42.738 53.5899 40.836 52.2257L38.1373 50.2903C35.2641 48.2302 31.4365 50.4406 31.123 54.3376C30.6909 59.7139 30.686 59.6546 30.6604 60.4509C30.4626 64.0961 31.3818 68.6813 33.4756 72.4684L33.6148 78.3112C33.6284 78.8815 34.0084 79.345 34.5056 79.3972C39.9342 79.967 45.4542 78.9012 50.469 76.3147L86.011 57.9836C89.739 56.0608 92.2397 51.655 91.889 46.6143C91.8807 46.5096 91.8544 46.3811 91.8126 46.2703ZM89.6684 46.5241C87.2879 49.1073 83.83 51.6285 80.8088 53.1867C76.2574 55.5341 71.59 57.6623 66.8606 59.5513L68.5482 51.4967C72.9932 51.2124 77.3177 50.0006 81.414 47.8879C83.2068 46.9633 83.8039 44.3753 82.6087 42.6179C85.4234 42.1311 88.2591 43.6408 89.6684 46.5241ZM48.7229 43.7766C48.8507 42.9684 48.8962 42.2194 49.7084 41.8005C50.2345 41.5291 50 41.6013 57.5989 42.4774L56.4435 44.8093C56.1685 45.3642 56.3354 46.0597 56.8159 46.3626C57.2958 46.665 57.909 46.4617 58.1841 45.9064L59.7596 42.7267L63.4328 43.1502L62.2384 45.5606C61.9634 46.1156 62.1302 46.811 62.6107 47.1139C63.0907 47.4163 63.7038 47.2131 63.979 46.6577L65.5934 43.3995L69.2666 43.8231L68.0333 46.312C67.7583 46.867 67.9251 47.5624 68.4056 47.8653C68.8855 48.1677 69.4987 47.9644 69.7738 47.4091L71.4272 44.0724L75.312 44.5203C76.9424 44.7082 78.6052 44.3502 79.8237 43.7218C80.3341 43.4586 80.9212 43.7111 81.1417 44.2887C81.3621 44.8663 81.1291 45.5418 80.6187 45.8051C74.1247 49.1545 67.0268 50.0607 60.3039 48.6023L50.8615 46.5546L49.3774 45.4903C48.8722 45.1276 48.6153 44.4551 48.7229 43.7766ZM33.12 54.5021C33.2953 52.3193 35.4389 51.0837 37.0467 52.2362L39.7454 54.1717C42.5044 56.1504 46.1291 55.4091 48.2115 52.537L50.8541 48.8917C60.4666 50.9762 62.27 51.5536 66.4827 51.5598L64.6251 60.4261C63.4899 60.8595 62.3516 61.2775 61.211 61.6828C60.1954 59.9622 58.6914 58.8383 57.084 58.3739C54.7958 57.7107 52.4332 57.4831 50.0625 57.6972L32.7378 59.2575L33.12 54.5021ZM85.216 55.9003L49.674 74.2315C45.2458 76.5153 40.3964 77.5328 35.5953 77.1934L35.4939 72.9359L39.636 71.5079C40.1706 71.3234 40.4786 70.683 40.3287 70.08C40.1784 69.4751 39.6245 69.1337 39.0915 69.3174L34.9284 70.7526C33.4949 67.9801 32.7122 64.7965 32.6564 61.5578L50.1809 59.9793C52.3332 59.785 54.4776 59.9917 56.5555 60.5938C57.5206 60.8726 58.4411 61.4852 59.1467 62.4008C59.1341 62.4051 46.7053 66.6839 46.5986 66.7389C46.0903 67.0011 45.8568 67.6798 46.0763 68.255C46.2799 68.7886 46.8029 69.0453 47.2831 68.8705C60.4492 64.3297 69.1034 61.7172 81.6041 55.2698C84.376 53.8402 87.3887 51.7103 89.7545 49.4647C89.243 52.2526 87.5853 54.6783 85.216 55.9003Z" fill="white"/>
</g>
</g>
<path d="M143.27 51.49H137.12V46H156.5V51.49H150.35V67H143.27V51.49ZM169.056 67.48C166.796 67.48 164.766 67.01 162.966 66.07C161.166 65.13 159.756 63.83 158.736 62.17C157.716 60.49 157.206 58.6 157.206 56.5C157.206 54.4 157.716 52.52 158.736 50.86C159.756 49.18 161.166 47.87 162.966 46.93C164.766 45.99 166.796 45.52 169.056 45.52C171.316 45.52 173.346 45.99 175.146 46.93C176.946 47.87 178.356 49.18 179.376 50.86C180.396 52.52 180.906 54.4 180.906 56.5C180.906 58.6 180.396 60.49 179.376 62.17C178.356 63.83 176.946 65.13 175.146 66.07C173.346 67.01 171.316 67.48 169.056 67.48ZM169.056 61.75C169.936 61.75 170.726 61.54 171.426 61.12C172.146 60.68 172.716 60.07 173.136 59.29C173.556 58.49 173.766 57.56 173.766 56.5C173.766 55.44 173.556 54.52 173.136 53.74C172.716 52.94 172.146 52.33 171.426 51.91C170.726 51.47 169.936 51.25 169.056 51.25C168.176 51.25 167.376 51.47 166.656 51.91C165.956 52.33 165.396 52.94 164.976 53.74C164.556 54.52 164.346 55.44 164.346 56.5C164.346 57.56 164.556 58.49 164.976 59.29C165.396 60.07 165.956 60.68 166.656 61.12C167.376 61.54 168.176 61.75 169.056 61.75ZM193.586 46C195.526 46 197.216 46.32 198.656 46.96C200.096 47.6 201.206 48.52 201.986 49.72C202.766 50.92 203.156 52.32 203.156 53.92C203.156 55.52 202.766 56.92 201.986 58.12C201.206 59.32 200.096 60.24 198.656 60.88C197.216 61.52 195.526 61.84 193.586 61.84H190.556V67H183.476V46H193.586ZM193.136 56.38C194.096 56.38 194.816 56.17 195.296 55.75C195.776 55.31 196.016 54.7 196.016 53.92C196.016 53.14 195.776 52.54 195.296 52.12C194.816 51.68 194.096 51.46 193.136 51.46H190.556V56.38H193.136ZM222.595 67.48C220.855 67.48 219.155 67.29 217.495 66.91C215.855 66.51 214.505 65.98 213.445 65.32L215.725 60.16C216.725 60.74 217.845 61.21 219.085 61.57C220.325 61.91 221.515 62.08 222.655 62.08C223.635 62.08 224.335 61.99 224.755 61.81C225.175 61.61 225.385 61.32 225.385 60.94C225.385 60.5 225.105 60.17 224.545 59.95C224.005 59.73 223.105 59.49 221.845 59.23C220.225 58.89 218.875 58.53 217.795 58.15C216.715 57.75 215.775 57.11 214.975 56.23C214.175 55.33 213.775 54.12 213.775 52.6C213.775 51.28 214.145 50.08 214.885 49C215.625 47.92 216.725 47.07 218.185 46.45C219.665 45.83 221.455 45.52 223.555 45.52C224.995 45.52 226.405 45.68 227.785 46C229.185 46.3 230.415 46.75 231.475 47.35L229.345 52.48C227.285 51.44 225.335 50.92 223.495 50.92C221.675 50.92 220.765 51.36 220.765 52.24C220.765 52.66 221.035 52.98 221.575 53.2C222.115 53.4 223.005 53.62 224.245 53.86C225.845 54.16 227.195 54.51 228.295 54.91C229.395 55.29 230.345 55.92 231.145 56.8C231.965 57.68 232.375 58.88 232.375 60.4C232.375 61.72 232.005 62.92 231.265 64C230.525 65.06 229.415 65.91 227.935 66.55C226.475 67.17 224.695 67.48 222.595 67.48ZM255.181 46V67H248.101V59.26H241.561V67H234.481V46H241.561V53.44H248.101V46H255.181ZM269.603 67.48C267.343 67.48 265.313 67.01 263.513 66.07C261.713 65.13 260.303 63.83 259.283 62.17C258.263 60.49 257.753 58.6 257.753 56.5C257.753 54.4 258.263 52.52 259.283 50.86C260.303 49.18 261.713 47.87 263.513 46.93C265.313 45.99 267.343 45.52 269.603 45.52C271.863 45.52 273.893 45.99 275.693 46.93C277.493 47.87 278.903 49.18 279.923 50.86C280.943 52.52 281.453 54.4 281.453 56.5C281.453 58.6 280.943 60.49 279.923 62.17C278.903 63.83 277.493 65.13 275.693 66.07C273.893 67.01 271.863 67.48 269.603 67.48ZM269.603 61.75C270.483 61.75 271.273 61.54 271.973 61.12C272.693 60.68 273.263 60.07 273.683 59.29C274.103 58.49 274.313 57.56 274.313 56.5C274.313 55.44 274.103 54.52 273.683 53.74C273.263 52.94 272.693 52.33 271.973 51.91C271.273 51.47 270.483 51.25 269.603 51.25C268.723 51.25 267.923 51.47 267.203 51.91C266.503 52.33 265.943 52.94 265.523 53.74C265.103 54.52 264.893 55.44 264.893 56.5C264.893 57.56 265.103 58.49 265.523 59.29C265.943 60.07 266.503 60.68 267.203 61.12C267.923 61.54 268.723 61.75 269.603 61.75ZM301.483 61.66V67H284.023V46H301.093V51.34H290.983V53.8H299.863V58.9H290.983V61.66H301.483ZM312.038 67.48C310.298 67.48 308.598 67.29 306.938 66.91C305.298 66.51 303.948 65.98 302.888 65.32L305.168 60.16C306.168 60.74 307.288 61.21 308.528 61.57C309.768 61.91 310.958 62.08 312.098 62.08C313.078 62.08 313.778 61.99 314.198 61.81C314.618 61.61 314.828 61.32 314.828 60.94C314.828 60.5 314.548 60.17 313.988 59.95C313.448 59.73 312.548 59.49 311.288 59.23C309.668 58.89 308.318 58.53 307.238 58.15C306.158 57.75 305.218 57.11 304.418 56.23C303.618 55.33 303.218 54.12 303.218 52.6C303.218 51.28 303.588 50.08 304.328 49C305.068 47.92 306.168 47.07 307.628 46.45C309.108 45.83 310.898 45.52 312.998 45.52C314.438 45.52 315.848 45.68 317.228 46C318.628 46.3 319.858 46.75 320.918 47.35L318.788 52.48C316.728 51.44 314.778 50.92 312.938 50.92C311.118 50.92 310.208 51.36 310.208 52.24C310.208 52.66 310.478 52.98 311.018 53.2C311.558 53.4 312.448 53.62 313.688 53.86C315.288 54.16 316.638 54.51 317.738 54.91C318.838 55.29 319.788 55.92 320.588 56.8C321.408 57.68 321.818 58.88 321.818 60.4C321.818 61.72 321.448 62.92 320.708 64C319.968 65.06 318.858 65.91 317.378 66.55C315.918 67.17 314.138 67.48 312.038 67.48Z" fill="white"/>
</g>
<defs>
<filter id="filter0_d" x="0" y="0" width="321.818" height="110" filterUnits="userSpaceOnUse" color-interpolation-filters="sRGB">
<feFlood flood-opacity="0" result="BackgroundImageFix"/>
<feColorMatrix in="SourceAlpha" type="matrix" values="0 0 0 0 0 0 0 0 0 0 0 0 0 0 0 0 0 0 127 0"/>
<feOffset dx="-5"/>
<feGaussianBlur stdDeviation="2"/>
<feColorMatrix type="matrix" values="0 0 0 0 0 0 0 0 0 0 0 0 0 0 0 0 0 0 0.25 0"/>
<feBlend mode="normal" in2="BackgroundImageFix" result="effect1_dropShadow"/>
<feBlend mode="normal" in="SourceGraphic" in2="effect1_dropShadow" result="shape"/>
</filter>
<clipPath id="clip0">
<rect x="17" y="4" width="84.6667" height="98" rx="42.3333" fill="white"/>
</clipPath>
<clipPath id="clip1">
<rect width="66.2831" height="71.3539" rx="19" transform="matrix(0.888754 -0.458385 0.356564 0.934271 17 34.9839)" fill="white"/>
</clipPath>
</defs>
</svg>
